<?xml version="1.0" encoding="iso-8859-1"?>
<!-- Uploaded to: SVG Repo, www.svgrepo.com, Generator: SVG Repo Mixer Tools -->
<svg id="Layer_1" version="1.1" viewBox="0 0 512 512"
     xml:space="preserve" xmlns="http://www.w3.org/2000/svg">
<circle cx="256" cy="256" r="256" style="fill:#B5F1F4;"/>
  <path d="M510.998,278.561L392.68,160.242L166.317,293.967l-48.656,56.139l160.892,160.892
	C401.937,500.227,500.222,401.944,510.998,278.561z" style="fill:#84DBFF;"/>
  <path d="M382.421,355.556h-252.84c-8.728,0-15.803-7.075-15.803-15.803V172.246
	c0-8.728,7.075-15.801,15.803-15.801h252.84c8.728,0,15.803,7.075,15.803,15.801v167.507
	C398.222,348.481,391.147,355.556,382.421,355.556z" style="fill:#FC6F58;"/>
  <path d="M382.421,156.444H255.428v199.111h126.993c8.728,0,15.803-7.075,15.803-15.803V172.247
	C398.222,163.519,391.147,156.444,382.421,156.444z" style="fill:#F1543F;"/>
  <rect height="43.098" style="fill:#324A5E;" width="284.444" x="113.778" y="186.182"/>
  <rect height="43.098" style="fill:#2B3B4E;" width="142.791" x="255.431" y="186.182"/>
  <rect height="28.444" style="fill:#FFD15D;" width="113.778" x="142.222" y="284.444"/>
</svg>
