<?xml version="1.0" encoding="iso-8859-1"?>
<!-- Uploaded to: SVG Repo, www.svgrepo.com, Generator: SVG Repo Mixer Tools -->
<svg id="Capa_1" version="1.1" viewBox="0 0 320 320"
     xml:space="preserve" xmlns="http://www.w3.org/2000/svg">
<g id="XMLID_1041_">
	<polygon id="XMLID_1042_" points="30,215 30,185 160,185 160,135.003 0,135.003 0,255 160,255 160,215 	"
           style="fill:#78B9EB;"/>
  <rect height="30.003" id="XMLID_1043_" style="fill:#78B9EB;" width="160" y="65"/>
  <rect height="30.003" id="XMLID_1044_" style="fill:#5A8BB0;" width="160" x="160" y="65"/>
  <path d="M160,185v30v40h160V135.003H160V185z M220,175c8.179,0,15.439,3.928,20,9.999
		c4.561-6.071,11.821-9.999,20-9.999c13.808,0,25,11.192,25,25s-11.192,25-25,25c-8.179,0-15.439-3.928-20-9.999
		c-4.561,6.071-11.821,9.999-20,9.999c-13.808,0-25-11.192-25-25S206.192,175,220,175z" id="XMLID_1045_" style="fill:#5A8BB0;"/>
  <polygon id="XMLID_1048_" points="0,95.003 0,135.003 160,135.003 320,135.003 320,95.003 160,95.003 	"
           style="fill:#3C5D76;"/>
  <rect height="30" id="XMLID_1049_" style="fill:#FFFFFF;" width="130" x="30" y="185"/>
  <path d="M220,225c8.179,0,15.439-3.928,20-9.999c-3.139-4.179-5-9.372-5-15.001
		s1.861-10.822,5-15.001c-4.561-6.071-11.821-9.999-20-9.999c-13.808,0-25,11.192-25,25S206.192,225,220,225z" id="XMLID_1050_" style="fill:#FFDA44;"/>
  <path d="M240,215.001c4.561,6.071,11.821,9.999,20,9.999c13.808,0,25-11.192,25-25
		s-11.192-25-25-25c-8.179,0-15.439,3.928-20,9.999c-3.139,4.179-5,9.372-5,15.001S236.861,210.822,240,215.001z" id="XMLID_1051_" style="fill:#FF5023;"/>
</g>
</svg>
